<?xml version="1.0" encoding="utf-8"?>
<!-- Generator: Adobe Illustrator 27.8.0, SVG Export Plug-In . SVG Version: 6.00 Build 0)  -->
<svg version="1.1" id="Layer_1" xmlns="http://www.w3.org/2000/svg" xmlns:xlink="http://www.w3.org/1999/xlink" x="0px" y="0px"
	 viewBox="0 0 800 800" style="enable-background:new 0 0 800 800;" xml:space="preserve">
<style type="text/css">
	.st0{fill:#1D1D1D;}
	.st1{fill:#FFFFFF;}
	.st2{fill:#77DA7E;}
</style>
<g>
	<path class="st0" d="M408.5,184.9c33.2,26.8,72.9,45,102.3,56c19.7,7.4,39.3,13.2,53.9,16.8c0.4,20.6-0.9,58.6-12.6,103
		c-10.3,39-26.6,74.8-48.4,106.4C479,503,447,533.7,408.5,558.5c-38.2-24.6-70-55-94.6-90.5c-21.8-31.4-38.1-66.9-48.5-105.6
		c-12.1-44.8-13.5-83.8-13-104.7c14.6-3.6,34.3-9.4,53.9-16.8C335.6,229.9,375.3,211.7,408.5,184.9 M408.5,154.1
		c-62.6,61.2-172.3,84.5-178.2,84.5c0,0-26.5,225.6,178.2,347c204.8-121.4,178.2-347,178.2-347C580.7,238.6,471.1,215.3,408.5,154.1
		L408.5,154.1z"/>
</g>
<g>
	<polygon class="st0" points="416.3,625.6 407.4,607.7 398.5,625.6 378.7,628.5 393,642.5 389.7,662.3 407.4,653 425.2,662.3 
		421.8,642.5 436.1,628.5 	"/>
	<path class="st0" d="M289.4,587.2c3.7-21.1-6.3-52.4-16.4-67.1c-9,14.8-13.2,42.2,3.2,58.5c-11.7-5.7-26.6-7.8-54.4-4.9
		c-4.7,0.5-8.8,1.1-11.7,2C231.3,595.5,267.6,605.5,289.4,587.2z"/>
	<path class="st0" d="M254.2,560.9c8-18.3,5.8-48.5-2.2-67c-14.3,16.4-19.3,40.2-7.6,57.2c-17-13.4-41.4-18.1-61.7-16.3
		C198.7,557.8,231.2,572.5,254.2,560.9z"/>
	<path class="st0" d="M226,528c11.3-15.6,14.8-45.5,9.8-64c-15.5,13.1-24.2,35.4-16.6,53.5c-15.1-17.6-42.1-25.2-55.5-26.4
		C175,515.7,202.9,534.2,226,528z"/>
	<path class="st0" d="M205.3,491.1c13.5-12.8,19.9-40.1,17.6-58.8c-15.4,9.7-26.9,26.8-23.7,44.4c-9.5-15.9-25.9-25.5-44.6-30.5
		C160.9,469.5,182.7,493,205.3,491.1z"/>
	<path class="st0" d="M191.1,449.5c14.7-9.6,27.7-35.6,27.8-52.8c-21.2,9.4-31,27.7-30.1,42.9c-5-13.1-18.1-29.9-40-40
		C151.2,426.6,172.6,447.8,191.1,449.5z"/>
	<path class="st0" d="M184.4,407.7c12-5.1,31.8-25,32.6-49.4c-22.8,10.7-31.7,28.3-33,40.6c-2.1-11.5-10.1-29.5-33.7-40.6
		C150.8,377.3,165.9,403.1,184.4,407.7z"/>
	<path class="st0" d="M183.6,365.4c12.4-4,31.3-23.7,31.7-46.8c-10.8,5.3-22.4,14-26.6,24c-2.3,5.5-4.3,11.1-5,15.9
		c-1.1-10-7.2-28-31.7-39.9C152.3,341.6,171.1,361.4,183.6,365.4z"/>
	<path class="st0" d="M183.6,323c10.5-3.3,30-21.3,30-44.3c-22.9,11.5-28.9,29-30,38.3c-1.1-9.4-7-26.8-30-38.3
		C153.6,301.7,173,319.8,183.6,323z"/>
	<path class="st0" d="M328.7,556.6c-1.1,8.8,0,46.1,27,64.5c-30.8-10.8-61.5,10.4-67.9,16.5c23.2,7.9,58.8,10.1,80.5-10.1
		C371.6,597.9,348.8,570.6,328.7,556.6z"/>
	<path class="st0" d="M297.3,540.2c-8.5,22.4-3.3,47.4,18.4,60.9c-29-9-67.6,7.4-70.6,9c30,18.1,63.9,13.9,82.5-3.4
		C330.5,581.1,308.9,552.4,297.3,540.2z"/>
	<path class="st0" d="M184.7,288.2c16-11,12.2-33.9-0.5-49.3C171.8,254.8,168.6,277.5,184.7,288.2z"/>
	<path class="st0" d="M540.7,578.6c16.4-16.3,12.2-43.7,3.2-58.5c-10,14.7-20,46-16.4,67.1c21.7,18.3,58.1,8.3,79.2-11.6
		c-2.9-0.9-7-1.5-11.7-2C567.3,570.8,552.4,572.9,540.7,578.6z"/>
	<path class="st0" d="M572.5,551.1c11.7-17,6.7-40.7-7.6-57.2c-8,18.5-10.2,48.7-2.2,67c23,11.6,55.5-3.1,71.5-26.2
		C613.9,533,589.5,537.7,572.5,551.1z"/>
	<path class="st0" d="M597.7,517.5c7.6-18.1-1.2-40.5-16.6-53.5c-5,18.6-1.5,48.4,9.8,64c23.1,6.2,51-12.3,62.3-36.9
		C639.8,492.3,612.8,499.9,597.7,517.5z"/>
	<path class="st0" d="M617.7,476.7c3.1-17.6-8.4-34.7-23.7-44.4c-2.3,18.7,4.1,45.9,17.6,58.8c22.6,2,44.5-21.6,50.7-44.9
		C643.6,451.2,627.2,460.8,617.7,476.7z"/>
	<path class="st0" d="M625.8,449.5c18.5-1.7,39.9-22.9,42.4-49.9c-21.9,10.1-35,27-40,40c0.9-15.2-8.9-33.5-30.1-42.9
		C598.1,413.9,611.1,440,625.8,449.5z"/>
	<path class="st0" d="M632.5,407.7c18.4-4.7,33.6-30.4,34.2-49.4c-23.7,11.1-31.7,29.1-33.7,40.6c-1.3-12.3-10.2-29.9-33-40.6
		C600.8,382.8,620.6,402.7,632.5,407.7z"/>
	<path class="st0" d="M633.4,365.4c12.4-4,31.3-23.7,31.7-46.8c-24.5,11.9-30.5,29.9-31.7,39.9c-0.8-4.8-2.7-10.3-5-15.9
		c-4.2-10-15.8-18.8-26.6-24C602.1,341.6,620.9,361.4,633.4,365.4z"/>
	<path class="st0" d="M633.4,323c10.5-3.3,30-21.3,30-44.3c-22.9,11.5-28.9,29-30,38.3c-1.1-9.4-7-26.8-30-38.3
		C603.4,301.7,622.8,319.8,633.4,323z"/>
	<path class="st0" d="M461.3,621c27-18.4,28.1-55.7,27-64.5c-20.1,14-42.9,41.4-39.6,70.8c21.8,20.2,57.3,18,80.5,10.1
		C522.8,631.4,492.1,610.2,461.3,621z"/>
	<path class="st0" d="M501.3,601.1c21.6-13.5,26.9-38.5,18.4-60.9c-11.6,12.2-33.2,40.8-30.2,66.6c18.5,17.3,52.5,21.5,82.5,3.4
		C568.9,608.6,530.2,592.1,501.3,601.1z"/>
	<path class="st0" d="M632.2,288.2c16.1-10.7,12.9-33.4,0.5-49.3C620,254.3,616.2,277.2,632.2,288.2z"/>
</g>
<path class="st1" d="M520.8,262.2v68.6h-37.6L465,411.1l27.9,42.7c0,0,56.3-85.4,54.1-183.5L520.8,262.2z"/>
<path class="st1" d="M295.3,262.2v68.6h37.6l18.1,80.3l-27.9,42.7c0,0-56.3-85.4-54.1-183.5L295.3,262.2z"/>
<polygon class="st2" points="313.1,339.8 316.3,349.6 326.6,349.6 318.3,355.6 321.5,365.4 313.1,359.3 304.8,365.4 308,355.6 
	299.7,349.6 310,349.6 "/>
<polygon class="st2" points="501,339.8 504.2,349.6 514.5,349.6 506.2,355.6 509.3,365.4 501,359.3 492.7,365.4 495.9,355.6 
	487.6,349.6 497.8,349.6 "/>
<g>
	<path d="M350.5,323.4h-10.2l-1.8-11.7h-12.4l-1.8,11.7H315l10.3-64.5h14.8L350.5,323.4z M327.4,302.9h9.8l-4.9-32.6L327.4,302.9z"
		/>
	<path d="M385.5,273.7v2.3c0,6.6-2,10.9-6.5,13c5.4,2.1,7.6,7,7.6,13.8v5.3c0,10-5.3,15.3-15.4,15.3h-15.9v-64.5h15.3
		C381,258.8,385.5,263.7,385.5,273.7z M365.4,268v17.1h4c3.8,0,6.1-1.7,6.1-6.8v-3.6c0-4.6-1.6-6.6-5.2-6.6H365.4z M365.4,294.3
		v19.8h5.8c3.4,0,5.3-1.6,5.3-6.4v-5.6c0-6-1.9-7.8-6.5-7.8H365.4z"/>
	<path d="M413.8,323.4c-0.6-1.7-0.9-2.7-0.9-7.9v-10.1c0-6-2-8.2-6.6-8.2h-3.5v26.3h-10.1v-64.5h15.3c10.5,0,15,4.9,15,14.8v5.1
		c0,6.6-2.1,11-6.6,13.1c5.1,2.1,6.7,7,6.7,13.7v10c0,3.1,0.1,5.4,1.1,7.8H413.8z M402.8,268v19.8h4c3.8,0,6.1-1.7,6.1-6.8v-6.4
		c0-4.6-1.6-6.6-5.2-6.6H402.8z"/>
	<path d="M462.5,323.4h-10.2l-1.8-11.7h-12.4l-1.8,11.7H427l10.3-64.5h14.8L462.5,323.4z M439.4,302.9h9.8l-4.9-32.6L439.4,302.9z"
		/>
	<path d="M476.3,276.6v46.7h-9.1v-64.5h12.7l10.4,38.6v-38.6h9v64.5h-10.4L476.3,276.6z"/>
</g>
<g>
	<path d="M368.7,356.7v4.3c0,5.2-2.6,8.1-7.6,8.1s-7.6-3-7.6-8.1v-16.8c0-5.2,2.6-8.1,7.6-8.1s7.6,3,7.6,8.1v3.1h-4.8v-3.5
		c0-2.3-1-3.2-2.6-3.2c-1.6,0-2.6,0.9-2.6,3.2v17.5c0,2.3,1,3.1,2.6,3.1c1.6,0,2.6-0.8,2.6-3.1v-4.6H368.7z"/>
	<path d="M388.2,368.8h-5.1l-0.9-5.9H376l-0.9,5.9h-4.7l5.2-32.3h7.4L388.2,368.8z M376.6,358.5h4.9l-2.4-16.4L376.6,358.5z"/>
	<path d="M395.1,345.4v23.4h-4.6v-32.3h6.4l5.2,19.4v-19.4h4.5v32.3h-5.2L395.1,345.4z"/>
	<path d="M425,356.7v4.3c0,5.2-2.6,8.1-7.6,8.1s-7.6-3-7.6-8.1v-16.8c0-5.2,2.6-8.1,7.6-8.1s7.6,3,7.6,8.1v3.1h-4.8v-3.5
		c0-2.3-1-3.2-2.6-3.2c-1.6,0-2.6,0.9-2.6,3.2v17.5c0,2.3,1,3.1,2.6,3.1c1.6,0,2.6-0.8,2.6-3.1v-4.6H425z"/>
	<path d="M433.2,368.8h-5.1v-32.3h5.1v13.9h5.8v-13.9h5.2v32.3H439v-13.9h-5.8V368.8z"/>
	<path d="M464.3,368.8h-5.1l-0.9-5.9h-6.2l-0.9,5.9h-4.7l5.2-32.3h7.4L464.3,368.8z M452.7,358.5h4.9l-2.4-16.4L452.7,358.5z"/>
</g>
<g>
	<path d="M359.1,431.1c3.3,0,5,2,5,5.4v0.7h-3.2v-0.9c0-1.5-0.6-2.1-1.7-2.1s-1.7,0.6-1.7,2.1c0,4.4,6.6,5.2,6.6,11.4
		c0,3.4-1.7,5.4-5,5.4c-3.3,0-5-2-5-5.4v-1.3h3.2v1.5c0,1.5,0.7,2.1,1.8,2.1s1.8-0.6,1.8-2.1c0-4.4-6.6-5.2-6.6-11.4
		C354.1,433.1,355.8,431.1,359.1,431.1z"/>
	<path d="M376,436.7v2.8c0,3.4-1.7,5.3-5,5.3h-1.6v8.1H366v-21.5h5C374.4,431.3,376,433.2,376,436.7z M369.4,434.4v7.3h1.6
		c1.1,0,1.7-0.5,1.7-2v-3.2c0-1.5-0.6-2-1.7-2H369.4z"/>
	<path d="M377.5,436.5c0-3.4,1.8-5.4,5.1-5.4c3.3,0,5.1,2,5.1,5.4v11.2c0,3.4-1.8,5.4-5.1,5.4c-3.3,0-5.1-2-5.1-5.4V436.5z
		 M380.8,447.9c0,1.5,0.7,2.1,1.8,2.1c1.1,0,1.8-0.6,1.8-2.1v-11.6c0-1.5-0.7-2.1-1.8-2.1c-1.1,0-1.8,0.6-1.8,2.1V447.9z"/>
	<path d="M396.9,452.8c-0.2-0.6-0.3-0.9-0.3-2.6v-3.4c0-2-0.7-2.7-2.2-2.7h-1.2v8.8h-3.4v-21.5h5.1c3.5,0,5,1.6,5,4.9v1.7
		c0,2.2-0.7,3.7-2.2,4.4c1.7,0.7,2.2,2.3,2.2,4.6v3.3c0,1,0,1.8,0.4,2.6H396.9z M393.3,434.4v6.6h1.3c1.3,0,2-0.6,2-2.3v-2.1
		c0-1.5-0.5-2.2-1.7-2.2H393.3z"/>
	<path d="M401.2,431.3h10.4v3.1h-3.5v18.4h-3.4v-18.4h-3.5V431.3z"/>
	<path d="M427.7,444.8v2.9c0,3.4-1.7,5.4-5,5.4c-3.3,0-5-2-5-5.4v-11.2c0-3.4,1.7-5.4,5-5.4c3.3,0,5,2,5,5.4v2.1h-3.2v-2.3
		c0-1.5-0.7-2.1-1.8-2.1c-1.1,0-1.8,0.6-1.8,2.1v11.6c0,1.5,0.7,2.1,1.8,2.1c1.1,0,1.8-0.6,1.8-2.1v-3.1H427.7z"/>
	<path d="M429.8,431.3h3.4v18.4h5.6v3.1h-8.9V431.3z"/>
	<path d="M443.4,431.3v16.6c0,1.5,0.7,2.1,1.8,2.1c1.1,0,1.8-0.6,1.8-2.1v-16.6h3.2v16.4c0,3.4-1.7,5.4-5,5.4s-5-2-5-5.4v-16.4
		H443.4z"/>
	<path d="M462.5,436.3v0.8c0,2.2-0.7,3.6-2.2,4.3c1.8,0.7,2.5,2.3,2.5,4.6v1.8c0,3.3-1.8,5.1-5.1,5.1h-5.3v-21.5h5.1
		C461,431.3,462.5,433,462.5,436.3z M455.8,434.4v5.7h1.3c1.3,0,2-0.6,2-2.3v-1.2c0-1.5-0.5-2.2-1.7-2.2H455.8z M455.8,443.2v6.6
		h1.9c1.1,0,1.8-0.5,1.8-2.1v-1.9c0-2-0.6-2.6-2.2-2.6H455.8z"/>
</g>
</svg>
