<?xml version="1.0" encoding="utf-8"?>
<!-- Generator: Adobe Illustrator 27.8.0, SVG Export Plug-In . SVG Version: 6.00 Build 0)  -->
<svg version="1.1" id="Layer_1" xmlns="http://www.w3.org/2000/svg" xmlns:xlink="http://www.w3.org/1999/xlink" x="0px" y="0px"
	 viewBox="0 0 550.8 526.4" style="enable-background:new 0 0 550.8 526.4;" xml:space="preserve">
<style type="text/css">
	.st0{fill:#1D1D1D;}
	.st1{fill:#77DA7E;}
	.st2{fill:#FFFFFF;}
</style>
<g>
	<path class="st0" d="M273.7,39c33.2,26.8,72.9,45,102.3,56c19.7,7.4,39.3,13.2,53.9,16.8c0.4,20.6-0.9,58.6-12.6,103
		c-10.3,39-26.6,74.8-48.4,106.4c-24.7,35.9-56.7,66.6-95.2,91.4c-38.2-24.6-70-55-94.6-90.5c-21.8-31.4-38.1-66.9-48.5-105.6
		c-12.1-44.8-13.5-83.8-13-104.7c14.6-3.6,34.3-9.4,53.9-16.8C200.8,84,240.6,65.8,273.7,39 M273.7,8.2
		C211.1,69.4,101.4,92.7,95.5,92.7c0,0-26.5,225.6,178.2,347C478.5,318.3,452,92.7,452,92.7C446,92.7,336.4,69.4,273.7,8.2
		L273.7,8.2z"/>
</g>
<g>
	<polygon class="st0" points="281.6,479.8 272.7,461.8 263.8,479.8 244,482.6 258.3,496.6 254.9,516.4 272.7,507.1 290.4,516.4 
		287,496.6 301.4,482.6 	"/>
	<path class="st0" d="M154.6,441.3c3.7-21.1-6.3-52.4-16.4-67.1c-9,14.8-13.2,42.2,3.2,58.5c-11.7-5.7-26.6-7.8-54.4-4.9
		c-4.7,0.5-8.8,1.1-11.7,2C96.5,449.6,132.9,459.6,154.6,441.3z"/>
	<path class="st0" d="M119.5,415c8-18.3,5.8-48.5-2.2-67c-14.3,16.4-19.3,40.2-7.6,57.2c-17-13.4-41.4-18.1-61.7-16.3
		C64,411.9,96.5,426.6,119.5,415z"/>
	<path class="st0" d="M91.3,382.1c11.3-15.6,14.8-45.5,9.8-64c-15.5,13.1-24.2,35.4-16.6,53.5C69.4,354,42.4,346.4,29,345.2
		C40.3,369.8,68.2,388.3,91.3,382.1z"/>
	<path class="st0" d="M70.6,345.2c13.5-12.8,19.9-40.1,17.6-58.8c-15.4,9.7-26.9,26.8-23.7,44.4c-9.5-15.9-25.9-25.5-44.6-30.5
		C26.1,323.6,48,347.1,70.6,345.2z"/>
	<path class="st0" d="M56.4,303.6c14.7-9.6,27.7-35.6,27.8-52.8c-21.2,9.4-31,27.7-30.1,42.9c-5-13.1-18.1-29.9-40-40
		C16.5,280.7,37.9,302,56.4,303.6z"/>
	<path class="st0" d="M49.6,261.9c12-5.1,31.8-25,32.6-49.4c-22.8,10.7-31.7,28.3-33,40.6c-2.1-11.5-10.1-29.5-33.7-40.6
		C16.1,231.4,31.2,257.2,49.6,261.9z"/>
	<path class="st0" d="M48.8,219.5c12.4-4,31.3-23.7,31.7-46.8c-10.8,5.3-22.4,14-26.6,24c-2.3,5.5-4.3,11.1-5,15.9
		c-1.1-10-7.2-28-31.7-39.9C17.5,195.8,36.4,215.5,48.8,219.5z"/>
	<path class="st0" d="M48.8,177.1c10.5-3.3,30-21.3,30-44.3c-22.9,11.5-28.9,29-30,38.3c-1.1-9.4-7-26.8-30-38.3
		C18.9,155.8,38.3,173.9,48.8,177.1z"/>
	<path class="st0" d="M194,410.7c-1.1,8.8,0,46.1,27,64.5c-30.8-10.8-61.5,10.4-67.9,16.5c23.2,7.9,58.8,10.1,80.5-10.1
		C236.9,452,214,424.7,194,410.7z"/>
	<path class="st0" d="M162.6,394.4c-8.5,22.4-3.3,47.4,18.4,60.9c-29-9-67.6,7.4-70.6,9c30,18.1,63.9,13.9,82.5-3.4
		C195.8,435.2,174.1,406.6,162.6,394.4z"/>
	<path class="st0" d="M50,142.4c16-11,12.2-33.9-0.5-49.3C37.1,108.9,33.9,131.6,50,142.4z"/>
	<path class="st0" d="M406,432.7c16.4-16.3,12.2-43.7,3.2-58.5c-10,14.7-20,46-16.4,67.1c21.7,18.3,58.1,8.3,79.2-11.6
		c-2.9-0.9-7-1.5-11.7-2C432.6,425,417.6,427.1,406,432.7z"/>
	<path class="st0" d="M437.8,405.2c11.7-17,6.7-40.7-7.6-57.2c-8,18.5-10.2,48.7-2.2,67c23,11.6,55.5-3.1,71.5-26.2
		C479.2,387.1,454.8,391.8,437.8,405.2z"/>
	<path class="st0" d="M463,371.6c7.6-18.1-1.2-40.5-16.6-53.5c-5,18.6-1.5,48.4,9.8,64c23.1,6.2,51-12.3,62.3-36.9
		C505.1,346.4,478.1,354,463,371.6z"/>
	<path class="st0" d="M483,330.8c3.1-17.6-8.4-34.7-23.7-44.4c-2.3,18.7,4.1,45.9,17.6,58.8c22.6,2,44.5-21.6,50.7-44.9
		C508.8,305.3,492.4,314.9,483,330.8z"/>
	<path class="st0" d="M491.1,303.6c18.5-1.7,39.9-22.9,42.4-49.9c-21.9,10.1-35,27-40,40c0.9-15.2-8.9-33.5-30.1-42.9
		C463.4,268,476.4,294.1,491.1,303.6z"/>
	<path class="st0" d="M497.8,261.9c18.4-4.7,33.6-30.4,34.2-49.4c-23.7,11.1-31.7,29.1-33.7,40.6c-1.3-12.3-10.2-29.9-33-40.6
		C466,236.9,485.8,256.8,497.8,261.9z"/>
	<path class="st0" d="M498.6,219.5c12.4-4,31.3-23.7,31.7-46.8c-24.5,11.9-30.5,29.9-31.7,39.9c-0.8-4.8-2.7-10.3-5-15.9
		c-4.2-10-15.8-18.8-26.6-24C467.3,195.8,486.2,215.5,498.6,219.5z"/>
	<path class="st0" d="M498.6,177.1c10.5-3.3,30-21.3,30-44.3c-22.9,11.5-28.9,29-30,38.3c-1.1-9.4-7-26.8-30-38.3
		C468.7,155.8,488.1,173.9,498.6,177.1z"/>
	<path class="st0" d="M326.5,475.1c27-18.4,28.1-55.7,27-64.5c-20.1,14-42.9,41.4-39.6,70.8c21.8,20.2,57.3,18,80.5,10.1
		C388,485.6,357.3,464.3,326.5,475.1z"/>
	<path class="st0" d="M366.5,455.3c21.6-13.5,26.9-38.5,18.4-60.9c-11.6,12.2-33.2,40.8-30.2,66.6c18.5,17.3,52.5,21.5,82.5,3.4
		C434.1,462.7,395.5,446.2,366.5,455.3z"/>
	<path class="st0" d="M497.4,142.4c16.1-10.7,12.9-33.4,0.5-49.3C485.2,108.4,481.4,131.4,497.4,142.4z"/>
</g>
<path class="st1" d="M386,116.3v68.6h-37.6l-18.1,80.3l27.9,42.7c0,0,56.3-85.4,54.1-183.5L386,116.3z"/>
<path class="st1" d="M160.5,116.3v68.6h37.6l18.1,80.3l-27.9,42.7c0,0-56.3-85.4-54.1-183.5L160.5,116.3z"/>
<polygon class="st2" points="178.4,193.9 181.6,203.7 191.9,203.7 183.5,209.7 186.7,219.5 178.4,213.5 170.1,219.5 173.3,209.7 
	164.9,203.7 175.2,203.7 "/>
<polygon class="st2" points="366.3,193.9 369.5,203.7 379.7,203.7 371.4,209.7 374.6,219.5 366.3,213.5 358,219.5 361.1,209.7 
	352.8,203.7 363.1,203.7 "/>
<g>
	<path d="M215.8,177.5h-10.2l-1.8-11.7h-12.4l-1.8,11.7h-9.3l10.3-64.5h14.8L215.8,177.5z M192.6,157h9.8l-4.9-32.6L192.6,157z"/>
	<path d="M250.8,127.8v2.3c0,6.6-2,10.9-6.5,13c5.4,2.1,7.6,7,7.6,13.8v5.3c0,10-5.3,15.3-15.4,15.3h-15.9v-64.5h15.3
		C246.3,112.9,250.8,117.8,250.8,127.8z M230.6,122.2v17.1h4c3.8,0,6.1-1.7,6.1-6.8v-3.6c0-4.6-1.6-6.6-5.2-6.6H230.6z M230.6,148.4
		v19.8h5.8c3.4,0,5.3-1.6,5.3-6.4v-5.6c0-6-1.9-7.8-6.5-7.8H230.6z"/>
	<path d="M279.1,177.5c-0.6-1.7-0.9-2.7-0.9-7.9v-10.1c0-6-2-8.2-6.6-8.2h-3.5v26.3h-10.1v-64.5h15.3c10.5,0,15,4.9,15,14.8v5.1
		c0,6.6-2.1,11-6.6,13.1c5.1,2.1,6.7,7,6.7,13.7v10c0,3.1,0.1,5.4,1.1,7.8H279.1z M268.1,122.2V142h4c3.8,0,6.1-1.7,6.1-6.8v-6.4
		c0-4.6-1.6-6.6-5.2-6.6H268.1z"/>
	<path d="M327.8,177.5h-10.2l-1.8-11.7h-12.4l-1.8,11.7h-9.3l10.3-64.5h14.8L327.8,177.5z M304.7,157h9.8l-4.9-32.6L304.7,157z"/>
	<path d="M341.5,130.7v46.7h-9.1v-64.5h12.7l10.4,38.6v-38.6h9v64.5h-10.4L341.5,130.7z"/>
</g>
<g>
	<path d="M233.9,210.8v4.3c0,5.2-2.6,8.1-7.6,8.1s-7.6-3-7.6-8.1v-16.8c0-5.2,2.6-8.1,7.6-8.1s7.6,3,7.6,8.1v3.1h-4.8V198
		c0-2.3-1-3.2-2.6-3.2c-1.6,0-2.6,0.9-2.6,3.2v17.5c0,2.3,1,3.1,2.6,3.1c1.6,0,2.6-0.8,2.6-3.1v-4.6H233.9z"/>
	<path d="M253.5,222.9h-5.1l-0.9-5.9h-6.2l-0.9,5.9h-4.7l5.2-32.3h7.4L253.5,222.9z M241.9,212.6h4.9l-2.4-16.4L241.9,212.6z"/>
	<path d="M260.4,199.5v23.4h-4.6v-32.3h6.4l5.2,19.4v-19.4h4.5v32.3h-5.2L260.4,199.5z"/>
	<path d="M290.3,210.8v4.3c0,5.2-2.6,8.1-7.6,8.1s-7.6-3-7.6-8.1v-16.8c0-5.2,2.6-8.1,7.6-8.1s7.6,3,7.6,8.1v3.1h-4.8V198
		c0-2.3-1-3.2-2.6-3.2c-1.6,0-2.6,0.9-2.6,3.2v17.5c0,2.3,1,3.1,2.6,3.1c1.6,0,2.6-0.8,2.6-3.1v-4.6H290.3z"/>
	<path d="M298.5,222.9h-5.1v-32.3h5.1v13.9h5.8v-13.9h5.2v32.3h-5.2V209h-5.8V222.9z"/>
	<path d="M329.6,222.9h-5.1l-0.9-5.9h-6.2l-0.9,5.9h-4.7l5.2-32.3h7.4L329.6,222.9z M318,212.6h4.9l-2.4-16.4L318,212.6z"/>
</g>
<g>
	<path d="M224.3,285.2c3.3,0,5,2,5,5.4v0.7h-3.2v-0.9c0-1.5-0.6-2.1-1.7-2.1s-1.7,0.6-1.7,2.1c0,4.4,6.6,5.2,6.6,11.4
		c0,3.4-1.7,5.4-5,5.4c-3.3,0-5-2-5-5.4v-1.3h3.2v1.5c0,1.5,0.7,2.1,1.8,2.1s1.8-0.6,1.8-2.1c0-4.4-6.6-5.2-6.6-11.4
		C219.4,287.2,221,285.2,224.3,285.2z"/>
	<path d="M241.3,290.8v2.8c0,3.4-1.7,5.3-5,5.3h-1.6v8.1h-3.4v-21.5h5C239.6,285.5,241.3,287.3,241.3,290.8z M234.6,288.5v7.3h1.6
		c1.1,0,1.7-0.5,1.7-2v-3.2c0-1.5-0.6-2-1.7-2H234.6z"/>
	<path d="M242.7,290.6c0-3.4,1.8-5.4,5.1-5.4c3.3,0,5.1,2,5.1,5.4v11.2c0,3.4-1.8,5.4-5.1,5.4c-3.3,0-5.1-2-5.1-5.4V290.6z
		 M246.1,302c0,1.5,0.7,2.1,1.8,2.1c1.1,0,1.8-0.6,1.8-2.1v-11.6c0-1.5-0.7-2.1-1.8-2.1c-1.1,0-1.8,0.6-1.8,2.1V302z"/>
	<path d="M262.2,307c-0.2-0.6-0.3-0.9-0.3-2.6v-3.4c0-2-0.7-2.7-2.2-2.7h-1.2v8.8h-3.4v-21.5h5.1c3.5,0,5,1.6,5,4.9v1.7
		c0,2.2-0.7,3.7-2.2,4.4c1.7,0.7,2.2,2.3,2.2,4.6v3.3c0,1,0,1.8,0.4,2.6H262.2z M258.5,288.5v6.6h1.3c1.3,0,2-0.6,2-2.3v-2.1
		c0-1.5-0.5-2.2-1.7-2.2H258.5z"/>
	<path d="M266.5,285.5h10.4v3.1h-3.5V307H270v-18.4h-3.5V285.5z"/>
	<path d="M293,298.9v2.9c0,3.4-1.7,5.4-5,5.4c-3.3,0-5-2-5-5.4v-11.2c0-3.4,1.7-5.4,5-5.4c3.3,0,5,2,5,5.4v2.1h-3.2v-2.3
		c0-1.5-0.7-2.1-1.8-2.1c-1.1,0-1.8,0.6-1.8,2.1V302c0,1.5,0.7,2.1,1.8,2.1c1.1,0,1.8-0.6,1.8-2.1v-3.1H293z"/>
	<path d="M295,285.5h3.4v18.4h5.6v3.1H295V285.5z"/>
	<path d="M308.7,285.5V302c0,1.5,0.7,2.1,1.8,2.1c1.1,0,1.8-0.6,1.8-2.1v-16.6h3.2v16.4c0,3.4-1.7,5.4-5,5.4s-5-2-5-5.4v-16.4H308.7
		z"/>
	<path d="M327.7,290.4v0.8c0,2.2-0.7,3.6-2.2,4.3c1.8,0.7,2.5,2.3,2.5,4.6v1.8c0,3.3-1.8,5.1-5.1,5.1h-5.3v-21.5h5.1
		C326.2,285.5,327.7,287.1,327.7,290.4z M321,288.5v5.7h1.3c1.3,0,2-0.6,2-2.3v-1.2c0-1.5-0.5-2.2-1.7-2.2H321z M321,297.3v6.6h1.9
		c1.1,0,1.8-0.5,1.8-2.1v-1.9c0-2-0.6-2.6-2.2-2.6H321z"/>
</g>
</svg>
